<svg
  xmlns="http://www.w3.org/2000/svg"
  viewBox="0 0 1508 1775"
  fill="currentColor"
  focusable="false"
  aria-hidden="true"
>
  <g transform="matrix(1.06787 0 0 1.06787 -216.778 -448.507)">
    <path
      fill-rule="evenodd"
      d="M831.142 470.376C832.559 470.121 832.083 470.162 833.708 470.092C983.03 463.675 1138.44 507.296 1251.43 645.307C1251.67 645.888 1255.42 649.442 1255.7 649.292C1265.67 644.075 1274.37 637.704 1284.7 633.131C1304.36 624.431 1324.81 619.352 1345.5 618.036C1401.15 614.849 1460.7 635.401 1500.72 684.407C1541.41 734.229 1543.25 790.988 1550.8 856.393C1559.12 882.45 1578.49 903.642 1577.02 935.234C1573.79 1005 1546.64 1112.5 1513.01 1165.09C1488.03 1204.16 1413.35 1219.96 1376 1223.13C1341.13 1226.08 1312.44 1210.69 1286.89 1177.74C1223.83 1258.8 1173.78 1303.3 1089.28 1334.18C1114.34 1371.78 1155.45 1453.79 1159.13 1506.03C1160.84 1530.37 1143.9 1544.57 1134.22 1558.7L1133.6 1559.62C1140.15 1576.43 1147.88 1593.41 1154.08 1610.81C1159 1624.37 1164.02 1638.93 1168.87 1652.41C1172.73 1663.14 1189.86 1703.42 1187.43 1715.24C1181.28 1745.19 1161.28 1773.54 1149.44 1800.15C1146.97 1805.71 1143.32 1812.17 1141.33 1818.23C1137.56 1835.86 1142.73 1854.46 1136.08 1872.19C1128.05 1893.4 1110.26 1909.64 1093.32 1915.82C1063.31 1926.77 1031.91 1936.87 1002.98 1916.9C995 1919.61 987.375 1922.64 979.3 1925.18C966.308 1929.25 952.912 1931.71 939.979 1935.41C934.484 1936.31 912.804 1938.72 909.163 1941.86C905.249 1945.24 908.68 1987.98 892.638 2009.92C876.289 2032.27 848.678 2038.44 826.33 2038.19C808.351 2037.99 785.292 2034.53 772.318 2016.34C764.729 2005.71 763.729 1996.01 763.992 1982.11C743.548 1967.4 729.644 1938.06 714.336 1926C701.391 1915.8 668.219 1908.2 652.546 1900.51C628.203 1888.56 624.753 1892.65 622.646 1852.86C615.924 1741.48 571.687 1639.86 573.074 1526.74C573.21 1515.65 573.758 1494.38 572.417 1484.13C561.599 1483.53 545.115 1488.34 532.17 1488.44C512.256 1488.58 480.138 1493.92 463.39 1476.76C461.291 1472.77 452.364 1451.12 452.066 1447.48C450.914 1433.39 450.645 1409.6 459.475 1400.91C478.473 1382.22 498.711 1370.89 518.457 1355.57C553.299 1328.52 587.834 1301.7 624.269 1279.11C584.199 1259.53 554.484 1240.89 520.486 1205.16C509.511 1193.63 498.565 1176.18 487.309 1167.67C482.844 1164.3 461.935 1161.38 455.68 1160.53C407.588 1153.95 374.021 1139.31 335.715 1098.22C297.768 1057.52 266.705 1000.15 260.272 934.12C255.156 881.597 279.154 865.759 289.936 823.221C298.047 789.459 296.577 735.436 315.725 708.083C333.04 683.349 365.377 647.952 386.793 629.391C419.336 601.188 461.515 593.45 499.388 596.153C515.316 597.29 534.726 600.17 550.452 597.883C554.708 596.832 579.862 575.992 585.21 571.751C597.018 562.522 608.984 553.657 621.098 545.164C671.539 510.664 725.888 487.448 781.974 476.442C798.174 473.401 814.891 472.369 831.142 470.376Z M835.878 487.69C842.299 486.453 870.719 486.869 878.511 487.089C974.952 489.808 1077.1 516.291 1160.81 581.823C1181.93 598.307 1202.15 616.754 1221.33 637.026C1230.67 647.043 1239.29 659.418 1249.23 668.26C1251.75 670.498 1254.07 670.552 1256.97 669.636C1262.59 667.858 1268.07 663.555 1273.24 660.201C1284.06 653.182 1295.5 645.848 1307.35 642.579C1364.41 626.827 1422.21 635.512 1471.42 679.144C1504.97 708.885 1524.14 756.74 1529.01 809.69C1530.68 827.852 1530.54 848.501 1535.41 865.68C1541.43 886.903 1556.14 899.227 1559.37 922.849C1565.84 970.232 1529.4 1101.28 1508.57 1140.15C1504.18 1148.34 1499.49 1156.52 1493.52 1162.79C1471.08 1186.37 1430.11 1197.1 1401.9 1203.05C1371.32 1209.5 1341.37 1208.87 1315.36 1183.94C1306.62 1175.56 1299.04 1165.29 1290.3 1156.93L1289.36 1156.05C1287.43 1155.9 1282.21 1155.41 1281.02 1156.85C1268.1 1172.41 1253.63 1191.37 1240.77 1206.51C1201.69 1252.23 1156.18 1287.12 1106.88 1309.15C1095.76 1314.16 1071.77 1319.87 1064.23 1324.52C1063.7 1326.81 1064.56 1328.46 1065.92 1330.53C1097.49 1378.64 1132.25 1441.8 1141.95 1505.3C1144.81 1524 1122.82 1543.06 1115.26 1555.34C1116.55 1566.13 1122.74 1578.55 1126.45 1588.38C1132.97 1605.63 1168.11 1696.51 1169.4 1708.01C1171.23 1724.29 1142.39 1776.56 1134.34 1793.02C1130.82 1800.2 1126.21 1807.79 1124.1 1815.96C1118.94 1835.94 1127.21 1854.36 1116.23 1874.46C1100.85 1902.6 1049.63 1915.91 1025.6 1909.94C1018.47 1908.17 1010.75 1896.72 1003.65 1897.55C995.899 1898.45 987.33 1904.43 979.614 1907.02C963.676 1912.36 947.045 1915.99 930.8 1919.23C928.604 1918.9 899.182 1924.63 897.147 1926.86C882.939 1942.38 894.603 1981.04 878.696 1999.88C857.111 2025.44 808.775 2030.26 785.844 2006.32C779.619 1999.69 780.795 1982.11 780.882 1971.75C750.298 1953.56 747.388 1930.31 721.74 1910.04C709.831 1900.62 648.413 1884.33 641.657 1873.66C639.971 1865.7 639.275 1850.78 638.772 1842.06C635.911 1792.51 625.552 1747.32 614.46 1700.18C600.105 1639.17 588.579 1576.44 589.905 1511.97C590.187 1498.28 589.151 1483.76 590.564 1470.22C590.993 1466.2 592.187 1464.88 589.652 1461.56C586.785 1461.46 565.549 1466.47 560.414 1467.35C543.837 1470.11 527.158 1471.62 510.455 1471.88C485.082 1472.58 466.561 1472.98 468.09 1430.26C468.807 1410.23 477.139 1406.58 488.887 1398.31C533.578 1366.87 576.762 1331.95 621.765 1301.26C626.742 1297.87 654.313 1281.46 656.621 1278.45L656.466 1276.87C644.755 1267.7 612.563 1257.05 599.414 1246.93C591.938 1241.17 584.991 1237.95 578.11 1232.78C563.948 1222.12 549.801 1209.35 536.533 1196.73C523.413 1184.26 509.73 1162.45 496.736 1151.99C492.94 1148.93 470.483 1145.66 464.746 1144.87C415.642 1138.06 379.3 1124.88 341.519 1079.22C310.132 1041.3 280.548 989.011 277.021 930.328C275.198 900.004 283.032 883.496 294.705 858.942C296.153 854.628 301.573 845.942 302.187 841.709C303.839 830.305 307.873 819.879 309.821 808.889C315.418 777.315 314.004 740.092 331.365 714.588C341.01 700.42 354.212 688.198 364.976 675.37C411.393 621.72 450.049 607.425 511.2 614.169C521.218 615.274 550.399 619.407 558.054 614.495C577.609 601.948 598.523 583.294 618.227 569.095C687.221 519.376 757.369 492.549 835.878 487.69Z"
    />
  </g>
</svg>
